<svg width="22" height="24" viewBox="0 0 22 24" fill="none" xmlns="http://www.w3.org/2000/svg">
<path d="M21.6506 5.28646V0.679742C21.6506 0.463488 21.545 0.257292 21.374 0.131563C21.1979 0.00583337 20.9716 -0.0344 20.7654 0.0309792L7.04084 4.39127C6.7592 4.48179 6.56809 4.74331 6.56809 5.04003V9.65178V9.65681V18.4729C5.84892 17.9751 4.92859 17.7035 3.96299 17.7035C2.94206 17.7035 1.97143 18.0103 1.23215 18.5635C0.437538 19.1619 0 19.9716 0 20.8517C0 21.7318 0.437538 22.5415 1.23215 23.14C1.97143 23.6932 2.93703 24 3.96299 24C4.98894 24 5.95454 23.6932 6.69382 23.14C7.48843 22.5415 7.92597 21.7318 7.92597 20.8517V10.1497L20.2927 6.21686V14.0925C19.5735 13.5946 18.6532 13.3231 17.6876 13.3231C16.6667 13.3231 15.696 13.6299 14.9567 14.1831C14.1621 14.7815 13.7246 15.5912 13.7246 16.4713C13.7246 17.3514 14.1621 18.1611 14.9567 18.7596C15.696 19.3128 16.6616 19.6196 17.6876 19.6196C18.7135 19.6196 19.6791 19.3128 20.4184 18.7596C21.213 18.1611 21.6506 17.3514 21.6506 16.4713V5.29149C21.6506 5.28646 21.6506 5.28646 21.6506 5.28646ZM3.96299 22.6421C2.54979 22.6421 1.35788 21.8224 1.35788 20.8517C1.35788 19.8811 2.54979 19.0614 3.96299 19.0614C5.37618 19.0614 6.56809 19.8811 6.56809 20.8517C6.56809 21.8274 5.37618 22.6421 3.96299 22.6421ZM7.92597 8.72138V5.53289L20.2927 1.60511V4.7936L7.92597 8.72138ZM17.6926 18.2617C16.2794 18.2617 15.0875 17.442 15.0875 16.4713C15.0875 15.5007 16.2794 14.6809 17.6926 14.6809C19.1058 14.6809 20.2977 15.5007 20.2977 16.4713C20.2927 17.442 19.1008 18.2617 17.6926 18.2617Z" fill="black"/>
</svg>
