<svg width="24" height="24" viewBox="0 0 24 24" fill="none" xmlns="http://www.w3.org/2000/svg">
<path d="M20.4757 3.51759C18.2093 1.25126 15.1993 0 11.9933 0C8.78722 0 5.77717 1.25126 3.51084 3.51759C-0.861019 7.88945 -1.1776 14.8744 2.71687 19.608C2.17918 20.7085 1.54602 21.4422 0.827424 21.794C0.390238 22.0101 0.144007 22.4824 0.214358 22.9648C0.289735 23.4523 0.661595 23.8291 1.14903 23.9045C1.41536 23.9447 1.7018 23.9698 1.99828 23.9698C3.47064 23.9698 5.01838 23.4623 6.30984 22.5729C8.04853 23.5075 10.0033 24 11.9933 24C15.1993 24 18.2093 22.7538 20.4757 20.4874C22.742 18.2211 23.9882 15.206 23.9882 12.005C23.9882 8.80402 22.742 5.78392 20.4757 3.51759ZM19.5159 19.5226C17.5058 21.5327 14.8324 22.6382 11.9933 22.6382C10.0938 22.6382 8.22943 22.1307 6.60632 21.1759C6.50079 21.1156 6.38019 21.0804 6.26461 21.0804C6.11888 21.0804 5.96813 21.1307 5.84752 21.2211C4.30984 22.4121 2.7621 22.5879 2.08371 22.603C2.89275 22 3.57114 21.0653 4.13898 19.7638C4.24451 19.5226 4.19928 19.2412 4.0234 19.0402C0.30481 14.8392 0.50079 8.43719 4.47064 4.46734C6.48069 2.45729 9.15406 1.35176 11.9933 1.35176C14.8324 1.35176 17.5058 2.45729 19.5159 4.46734C23.6666 8.62312 23.6666 15.3769 19.5159 19.5226Z" fill="black"/>
<path d="M17.0184 8.04016H6.96813C6.59124 8.04016 6.28973 8.34167 6.28973 8.71855C6.28973 9.09544 6.59124 9.39694 6.96813 9.39694H17.0184C17.3953 9.39694 17.6968 9.09544 17.6968 8.71855C17.6968 8.34167 17.3902 8.04016 17.0184 8.04016Z" fill="black"/>
<path d="M17.0184 11.3216H6.96813C6.59124 11.3216 6.28973 11.6231 6.28973 12C6.28973 12.3769 6.59124 12.6784 6.96813 12.6784H17.0184C17.3953 12.6784 17.6968 12.3769 17.6968 12C17.6968 11.6231 17.3902 11.3216 17.0184 11.3216Z" fill="black"/>
<path d="M17.0184 14.603H6.96813C6.59124 14.603 6.28973 14.9045 6.28973 15.2814C6.28973 15.6583 6.59124 15.9598 6.96813 15.9598H17.0184C17.3953 15.9598 17.6968 15.6583 17.6968 15.2814C17.6968 14.9045 17.3902 14.603 17.0184 14.603Z" fill="black"/>
</svg>
