<svg width="24" height="24" viewBox="0 0 24 24" fill="none" xmlns="http://www.w3.org/2000/svg">
<path d="M12.6995 11.6977V0.674578C12.6995 0.299813 12.3997 0 12.0249 0C11.6502 0 11.3504 0.299813 11.3504 0.674578V11.6977C9.78634 12.0125 8.60208 13.3966 8.60208 15.0556C8.60208 16.7146 9.78634 18.0987 11.3504 18.4135V23.3204C11.3504 23.6952 11.6502 23.995 12.0249 23.995C12.3997 23.995 12.6995 23.6952 12.6995 23.3204V18.4135C14.2635 18.0987 15.4478 16.7146 15.4478 15.0556C15.4478 13.4016 14.2685 12.0125 12.6995 11.6977ZM12.0249 17.1293C10.8807 17.1293 9.95124 16.1999 9.95124 15.0556C9.95124 13.9113 10.8807 12.9819 12.0249 12.9819C13.1692 12.9819 14.0986 13.9113 14.0986 15.0556C14.0986 16.1999 13.1692 17.1293 12.0249 17.1293Z" fill="black"/>
<path d="M4.43972 6.04122V0.674578C4.43972 0.299813 4.13991 0 3.76515 0C3.39038 0 3.09057 0.299813 3.09057 0.674578V6.04122C1.52655 6.35603 0.342285 7.74016 0.342285 9.39913C0.342285 11.0581 1.52655 12.4422 3.09057 12.757V23.3204C3.09057 23.6952 3.39038 23.995 3.76515 23.995C4.13991 23.995 4.43972 23.6952 4.43972 23.3204V12.752C6.00375 12.4372 7.18801 11.0531 7.18801 9.39413C7.18801 7.73517 6.00375 6.35603 4.43972 6.04122ZM3.76515 11.4728C2.62086 11.4728 1.69144 10.5434 1.69144 9.39913C1.69144 8.25484 2.62086 7.32542 3.76515 7.32542C4.90943 7.32542 5.83885 8.25484 5.83885 9.39913C5.83885 10.5434 4.90443 11.4728 3.76515 11.4728Z" fill="black"/>
<path d="M20.9094 6.04122V0.674578C20.9094 0.299813 20.6096 0 20.2348 0C19.8601 0 19.5603 0.299813 19.5603 0.674578V6.04122C17.9962 6.35603 16.812 7.74016 16.812 9.39913C16.812 11.0581 17.9962 12.4422 19.5603 12.757V23.3254C19.5603 23.7002 19.8601 24 20.2348 24C20.6096 24 20.9094 23.7002 20.9094 23.3254V12.752C22.4734 12.4372 23.6577 11.0531 23.6577 9.39413C23.6577 7.73517 22.4784 6.35603 20.9094 6.04122ZM20.2348 11.4728C19.0906 11.4728 18.1611 10.5434 18.1611 9.39913C18.1611 8.25484 19.0906 7.32542 20.2348 7.32542C21.3791 7.32542 22.3085 8.25484 22.3085 9.39913C22.3085 10.5434 21.3791 11.4728 20.2348 11.4728Z" fill="black"/>
</svg>
