<svg width="26" height="24" viewBox="0 0 26 24" fill="none" xmlns="http://www.w3.org/2000/svg">
<path d="M25.1017 9.06965C25.0191 8.81685 24.8024 8.63628 24.5393 8.59501L16.6975 7.48065L13.1687 0.38693C13.0501 0.149613 12.8076 0 12.5445 0C12.2814 0 12.0389 0.149613 11.9202 0.392089L8.43786 7.50645L0.596076 8.6724C0.332963 8.71367 0.116282 8.89424 0.033737 9.14703C-0.0488082 9.39983 0.0234188 9.67842 0.214304 9.85898L5.90476 15.374L4.5892 23.1849C4.54277 23.448 4.65111 23.7111 4.86779 23.8659C4.98645 23.9536 5.1309 24 5.27535 24C5.38885 24 5.49719 23.9742 5.60037 23.9175L12.6012 20.2081L19.6227 23.8762C19.7259 23.9278 19.8343 23.9536 19.9426 23.9536C20.3244 23.9536 20.6391 23.6389 20.6391 23.2571C20.6391 23.2003 20.6339 23.1488 20.6184 23.0972L19.2616 15.3328L24.9159 9.78676C25.1171 9.60103 25.1842 9.32244 25.1017 9.06965ZM18.0337 14.595C17.8686 14.7549 17.7964 14.9871 17.8377 15.2141L19.0191 21.988L12.9211 18.8048C12.7199 18.6965 12.4774 18.7016 12.2711 18.8048L6.19367 22.0241L7.33382 15.2399C7.36994 15.0129 7.29771 14.7859 7.13262 14.626L2.20055 9.83835L9.00536 8.82717C9.23236 8.79106 9.42841 8.65176 9.52643 8.4454L12.5496 2.26999L15.6141 8.42992C15.7173 8.63628 15.9134 8.77558 16.1404 8.81169L22.9503 9.7816L18.0337 14.595Z" fill="black"/>
</svg>
