<svg width="24" height="24" viewBox="0 0 24 24" fill="none" xmlns="http://www.w3.org/2000/svg">
<path d="M23.7946 0.208722C23.595 0.00916409 23.288 -0.0471213 23.0322 0.0654495L0.415656 9.9768C0.175163 10.0843 0.0165408 10.3145 0.00119026 10.5755C-0.0141603 10.8364 0.123995 11.082 0.349137 11.21L8.23421 15.6821L12.9161 23.649C13.0389 23.8588 13.2692 23.9919 13.5097 23.9919C13.525 23.9919 13.5353 23.9919 13.5506 23.9919C13.8116 23.9765 14.0367 23.8179 14.1442 23.5774L23.943 0.971133C24.0555 0.710173 23.9992 0.408279 23.7946 0.208722ZM20.1974 2.8132L8.62309 14.3108L2.23214 10.688L20.1974 2.8132ZM13.4176 21.7763L9.60553 15.283L21.2464 3.71888L13.4176 21.7763Z" fill="black"/>
</svg>
