<svg width="26" height="24" viewBox="0 0 26 24" fill="none" xmlns="http://www.w3.org/2000/svg">
<path d="M23.5823 8.57777H23.2117C22.5956 6.99587 21.5619 5.56015 20.1836 4.39591C19.9904 3.69632 20.1366 2.93931 20.6326 2.15619C20.9093 1.71242 20.925 1.1799 20.6744 0.725691C20.4238 0.276702 19.9539 0 19.4475 0C19.39 0 19.3274 0.00522079 19.27 0.0104416C17.3644 0.245377 16.2054 1.09637 15.511 1.90559C14.6757 1.64455 13.6158 1.56624 13.4174 1.55058C12.9267 1.49837 12.4255 1.46704 11.9295 1.46704C8.7605 1.46704 5.77942 2.55297 3.52926 4.51599C1.25299 6.50511 0 9.1625 0 11.9922C0 12.7231 0.0835327 13.454 0.255819 14.1692C0.26104 14.1849 0.26104 14.2006 0.266261 14.211L0.271481 14.2371C0.448988 14.9576 0.715249 15.6624 1.0546 16.3359C1.62367 17.5575 2.30237 18.5808 3.06461 19.3692C4.11921 20.4551 4.30194 21.8334 4.32804 22.3868V22.6583C4.32804 22.6687 4.32804 22.6844 4.32804 22.6948C4.32804 22.7522 4.33326 22.8044 4.3437 22.8566C4.4429 23.504 5.00152 24 5.66978 24H9.55928C10.3006 24 10.901 23.3996 10.901 22.6583V22.4807C11.4544 22.5225 12.0131 22.5277 12.5717 22.5016V22.6583C12.5717 23.3996 13.1721 24 13.9134 24H17.8029C18.5443 24 19.1447 23.3996 19.1447 22.6583V21.7081C19.1499 21.4888 19.2334 20.4499 20.2201 19.5519C20.2671 19.5101 20.3193 19.4683 20.3663 19.4266C20.3715 19.4214 20.3715 19.4214 20.3768 19.4161C20.3924 19.4057 20.4029 19.3953 20.4133 19.3796C21.7133 18.2154 22.6948 16.7953 23.2639 15.2447H23.5719C24.6108 15.2447 25.4566 14.399 25.4566 13.36V10.452C25.467 9.41832 24.6213 8.57777 23.5823 8.57777ZM19.4475 1.40439C19.4422 1.40439 19.4422 1.40439 19.4475 1.40439C19.4422 1.39917 19.4422 1.39917 19.4422 1.39917C19.4422 1.39917 19.4422 1.39917 19.4422 1.40439L19.3535 0.704807L19.4475 1.40439ZM24.0574 13.3652C24.0574 13.6263 23.8434 13.8403 23.5823 13.8403H22.7679C22.4599 13.8403 22.1832 14.0439 22.0944 14.3363C21.635 15.8399 20.7213 17.2286 19.4631 18.3511C19.4579 18.3563 19.4579 18.3563 19.4527 18.3615L19.4475 18.3668C19.4005 18.4085 19.3535 18.4503 19.3065 18.4921C19.3013 18.4973 19.2961 18.5025 19.2908 18.5077C17.8969 19.7712 17.7559 21.2591 17.7455 21.6872C17.7455 21.6924 17.7455 21.6976 17.7455 21.7029V22.5956H13.9865V21.7446C13.9865 21.5462 13.903 21.3531 13.7516 21.2225C13.6054 21.0868 13.4018 21.0241 13.2086 21.045C12.7805 21.092 12.3524 21.1129 11.9295 21.1129C11.3813 21.1129 10.8332 21.0764 10.2954 21.0033C10.0918 20.9772 9.88819 21.0398 9.73678 21.1703C9.58538 21.3061 9.49663 21.4992 9.49663 21.7029V22.5956H5.74288V22.3711C5.74288 22.3607 5.74288 22.3502 5.74288 22.3398C5.71155 21.635 5.48706 19.8338 4.08266 18.3876C3.42484 17.7089 2.83489 16.8162 2.3337 15.7303C2.32848 15.7198 2.32325 15.7146 2.32325 15.7042C2.02567 15.1246 1.79595 14.519 1.64455 13.8978C1.64455 13.8925 1.63933 13.8873 1.63933 13.8821C1.63933 13.8769 1.63933 13.8769 1.63933 13.8717C1.49315 13.2556 1.41484 12.6239 1.41484 11.9974C1.41484 6.96976 6.13444 2.88188 11.9347 2.88188C12.3837 2.88188 12.8379 2.90798 13.2817 2.95497C13.2921 2.95497 13.3026 2.95497 13.313 2.96019C13.8978 2.99674 14.9837 3.14814 15.417 3.38308C15.7355 3.55536 16.1323 3.45617 16.3359 3.15858C16.7901 2.4851 17.6985 1.63411 19.4422 1.42006C18.7374 2.54775 18.5286 3.71721 18.8366 4.80835C18.8419 5.01196 18.941 5.20513 19.0977 5.33565C20.5073 6.47379 21.5306 7.91995 22.0526 9.51229C22.1466 9.79943 22.4181 9.99782 22.7209 9.99782C22.7261 9.99782 22.7261 9.99782 22.7313 9.99782H23.5876C23.8486 9.99782 24.0626 10.2119 24.0626 10.4729V13.3652H24.0574Z" fill="black"/>
</svg>
