<svg width="24" height="24" viewBox="0 0 24 24" fill="none" xmlns="http://www.w3.org/2000/svg">
<path d="M19.8591 4.91938H19.2423V3.54653C19.2423 1.59171 17.6506 0 15.6957 0H8.24952C6.2947 0 4.70299 1.59171 4.70299 3.54653V4.91938H4.14092C2.1861 4.91938 0.594391 6.51109 0.594391 8.46591V14.1861C0.594391 16.1409 2.1861 17.7326 4.14092 17.7326H4.69802V22.2292C4.69802 23.2041 5.49387 24 6.46879 24H17.4665C18.4414 24 19.2373 23.2041 19.2373 22.2292V17.7326H19.8591C21.8139 17.7326 23.4056 16.1409 23.4056 14.1861V8.46591C23.4056 6.51109 21.8139 4.91938 19.8591 4.91938ZM6.04102 3.54653C6.04102 2.33285 7.03087 1.34301 8.24455 1.34301H15.6858C16.8995 1.34301 17.8893 2.33285 17.8893 3.54653V4.91938H6.04102V3.54653ZM17.8943 22.2392C17.8943 22.473 17.7003 22.6669 17.4665 22.6669H6.46879C6.23501 22.6669 6.04102 22.473 6.04102 22.2392V14.8228H17.8943V22.2392ZM22.0626 14.1911C22.0626 15.4048 21.0727 16.3946 19.8591 16.3946H19.2423V14.8228H20.1277C20.5007 14.8228 20.7992 14.5244 20.7992 14.1513C20.7992 13.7782 20.5007 13.4798 20.1277 13.4798H3.71315C3.34009 13.4798 3.04164 13.7782 3.04164 14.1513C3.04164 14.5244 3.34009 14.8228 3.71315 14.8228H4.70299V16.3946H4.14092C2.92724 16.3946 1.9374 15.4048 1.9374 14.1911V8.47088C1.9374 7.2572 2.92724 6.26736 4.14092 6.26736H19.8591C21.0727 6.26736 22.0626 7.2572 22.0626 8.47088V14.1911Z" fill="black"/>
<path d="M7.66754 18.1256H16.218C16.5911 18.1256 16.8895 17.8272 16.8895 17.4541C16.8895 17.081 16.5911 16.7826 16.218 16.7826H7.66754C7.29448 16.7826 6.99603 17.081 6.99603 17.4541C6.99603 17.8272 7.29945 18.1256 7.66754 18.1256Z" fill="black"/>
<path d="M16.2727 19.5283H7.71728C7.34422 19.5283 7.04578 19.8267 7.04578 20.1998C7.04578 20.5729 7.34422 20.8713 7.71728 20.8713H16.2677C16.6408 20.8713 16.9392 20.5729 16.9392 20.1998C16.9392 19.8267 16.6408 19.5283 16.2727 19.5283Z" fill="black"/>
<path d="M19.8441 7.55563H18.4812C18.1082 7.55563 17.8097 7.85408 17.8097 8.22714C17.8097 8.60019 18.1082 8.89864 18.4812 8.89864H19.8441C20.2172 8.89864 20.5156 8.60019 20.5156 8.22714C20.5156 7.85408 20.2172 7.55563 19.8441 7.55563Z" fill="black"/>
</svg>
