<svg width="24" height="24" viewBox="0 0 24 24" fill="none" xmlns="http://www.w3.org/2000/svg">
<path d="M22.6299 16.3162C23.1217 15.6888 23.3576 15.0163 23.3275 14.3237C23.2974 13.5609 22.9561 12.9636 22.675 12.5972C23.0013 11.7842 23.1267 10.5044 22.0376 9.51066C21.2396 8.78294 19.8846 8.45671 18.0075 8.54705C16.6876 8.60728 15.5834 8.8532 15.5383 8.86324H15.5332C15.2823 8.90841 15.0163 8.96361 14.7453 9.02384C14.7252 8.70263 14.7804 7.90464 15.3726 6.1079C16.0753 3.96989 16.0351 2.33375 15.2422 1.23965C14.409 0.0903388 13.079 0 12.6876 0C12.3112 0 11.9649 0.155583 11.7189 0.441656C11.1619 1.08908 11.2271 2.28356 11.2974 2.83563C10.6349 4.6123 8.77792 8.96863 7.20703 10.1782C7.17691 10.1982 7.15182 10.2233 7.12673 10.2484C6.66499 10.7353 6.35383 11.2622 6.14304 11.724C5.84693 11.5634 5.51066 11.473 5.14931 11.473H2.08783C0.933501 11.473 0 12.4115 0 13.5609V21.7164C0 22.8708 0.93852 23.8043 2.08783 23.8043H5.14931C5.59598 23.8043 6.01255 23.6637 6.35383 23.4228L7.53325 23.5634C7.71393 23.5885 10.926 23.995 14.2233 23.9297C14.8206 23.9749 15.3827 24 15.9046 24C16.803 24 17.5859 23.9297 18.2384 23.7892C19.7742 23.463 20.8231 22.8105 21.3551 21.8519C21.7616 21.1192 21.7616 20.3915 21.6964 19.9297C22.6951 19.0264 22.8708 18.0276 22.8356 17.325C22.8156 16.9184 22.7252 16.5721 22.6299 16.3162ZM2.08783 22.4492C1.68131 22.4492 1.35508 22.1179 1.35508 21.7164V13.5558C1.35508 13.1493 1.68632 12.8231 2.08783 12.8231H5.14931C5.55583 12.8231 5.88206 13.1543 5.88206 13.5558V21.7114C5.88206 22.1179 5.55082 22.4442 5.14931 22.4442H2.08783V22.4492ZM21.345 15.729C21.1343 15.9498 21.0941 16.2861 21.2547 16.5471C21.2547 16.5521 21.4605 16.9034 21.4856 17.3852C21.5207 18.0427 21.2045 18.6248 20.542 19.1217C20.3061 19.3024 20.2108 19.6136 20.3112 19.8946C20.3112 19.8996 20.527 20.5621 20.1757 21.1895C19.8394 21.7917 19.0916 22.2233 17.9573 22.4642C17.0489 22.66 15.8143 22.6951 14.2986 22.5747C14.2785 22.5747 14.2535 22.5747 14.2284 22.5747C11.0013 22.6449 7.73902 22.2233 7.70389 22.2183H7.69887L7.19197 22.1581C7.22208 22.0176 7.23714 21.867 7.23714 21.7164V13.5558C7.23714 13.34 7.20201 13.1292 7.14178 12.9335C7.23212 12.5972 7.48306 11.8494 8.07528 11.212C10.3287 9.42534 12.532 3.39774 12.6274 3.13676C12.6675 3.03137 12.6775 2.91593 12.6575 2.8005C12.5721 2.23839 12.6023 1.55082 12.7227 1.34504C12.9887 1.35006 13.7064 1.42535 14.138 2.02258C14.6499 2.73024 14.6299 3.99498 14.0778 5.67127C13.2346 8.22585 13.1644 9.57089 13.8319 10.1631C14.1631 10.4592 14.6048 10.4743 14.926 10.3588C15.2321 10.2886 15.5232 10.2284 15.7992 10.1832C15.8193 10.1782 15.8444 10.1732 15.8645 10.1681C17.4053 9.83187 20.1656 9.6261 21.1242 10.4994C21.9373 11.2422 21.3601 12.2258 21.2949 12.3312C21.1092 12.6123 21.1644 12.9787 21.4153 13.2045C21.4203 13.2095 21.9473 13.7064 21.9724 14.3739C21.9925 14.8206 21.7817 15.2773 21.345 15.729Z" fill="black"/>
</svg>
