<svg width="21" height="24" viewBox="0 0 21 24" fill="none" xmlns="http://www.w3.org/2000/svg">
<path d="M10.1202 12.9319C10.1451 12.9319 10.1699 12.9319 10.1997 12.9319C10.2097 12.9319 10.2196 12.9319 10.2296 12.9319C10.2445 12.9319 10.2643 12.9319 10.2793 12.9319C11.7355 12.907 12.9133 12.3951 13.7831 11.416C15.6965 9.25906 15.3784 5.5614 15.3437 5.20853C15.2194 2.55954 13.967 1.29219 12.9332 0.700766C12.1629 0.258439 11.2633 0.0198799 10.2594 0H10.2246C10.2196 0 10.2097 0 10.2047 0H10.1749C9.62322 0 8.53977 0.0894595 7.50104 0.680886C6.45735 1.27231 5.18503 2.53966 5.06078 5.20853C5.02599 5.5614 4.70792 9.25906 6.62136 11.416C7.48613 12.3951 8.66401 12.907 10.1202 12.9319ZM6.38777 5.33278C6.38777 5.31787 6.39274 5.30296 6.39274 5.29302C6.55675 1.72955 9.08646 1.34686 10.1699 1.34686H10.1898C10.1997 1.34686 10.2146 1.34686 10.2296 1.34686C11.5714 1.37668 13.8527 1.92338 14.0067 5.29302C14.0067 5.30793 14.0067 5.32284 14.0117 5.33278C14.0167 5.36757 14.3646 8.74715 12.7841 10.5264C12.1579 11.2321 11.323 11.58 10.2246 11.59C10.2146 11.59 10.2097 11.59 10.1997 11.59C10.1898 11.59 10.1848 11.59 10.1749 11.59C9.08149 11.58 8.24157 11.2321 7.62032 10.5264C6.04484 8.75709 6.3828 5.3626 6.38777 5.33278Z" fill="black"/>
<path d="M20.413 19.0648C20.413 19.0598 20.413 19.0549 20.413 19.0499C20.413 19.0101 20.4081 18.9704 20.4081 18.9256C20.3782 17.9416 20.3136 15.6405 18.1567 14.9049C18.1418 14.9 18.1219 14.895 18.107 14.89C15.8655 14.3185 14.0018 13.0263 13.9819 13.0114C13.6787 12.7977 13.2612 12.8722 13.0475 13.1754C12.8338 13.4785 12.9084 13.896 13.2115 14.1097C13.296 14.1694 15.2741 15.5461 17.7491 16.1822C18.9071 16.5947 19.0364 17.8322 19.0711 18.9654C19.0711 19.0101 19.0711 19.0499 19.0761 19.0896C19.0811 19.5369 19.0513 20.2278 18.9717 20.6254C18.1666 21.0826 15.0107 22.6631 10.2097 22.6631C5.42856 22.6631 2.25275 21.0776 1.44264 20.6204C1.36313 20.2228 1.32834 19.532 1.33828 19.0847C1.33828 19.0449 1.34325 19.0052 1.34325 18.9604C1.37804 17.8273 1.50725 16.5897 2.66526 16.1772C5.14031 15.5411 7.11835 14.1594 7.20284 14.1048C7.50601 13.891 7.58056 13.4736 7.36685 13.1704C7.15314 12.8672 6.73567 12.7927 6.4325 13.0064C6.41262 13.0213 4.55882 14.3135 2.30742 14.885C2.28754 14.89 2.27263 14.895 2.25772 14.9C0.100752 15.6405 0.0361426 17.9416 0.00632274 18.9207C0.00632274 18.9654 0.00632262 19.0052 0.00135265 19.0449C0.00135265 19.0499 0.00135265 19.0549 0.00135265 19.0598C-0.00361732 19.3183 -0.00858719 20.6452 0.254821 21.3112C0.304521 21.4404 0.393981 21.5498 0.51326 21.6243C0.662359 21.7237 4.23577 24 10.2146 24C16.1935 24 19.7669 21.7188 19.916 21.6243C20.0303 21.5498 20.1248 21.4404 20.1745 21.3112C20.423 20.6502 20.418 19.3232 20.413 19.0648Z" fill="black"/>
</svg>
