<svg width="185" height="30" viewBox="0 0 185 30" fill="none" xmlns="http://www.w3.org/2000/svg">
<path d="M17.959 5.23145H11.4258V23H7.03125V5.23145H0.585938V1.67188H17.959V5.23145ZM24.3311 8.87891C25.4541 7.53125 26.8652 6.85742 28.5645 6.85742C32.002 6.85742 33.7451 8.85449 33.7939 12.8486V23H29.5605V12.9658C29.5605 12.0576 29.3652 11.3887 28.9746 10.959C28.584 10.5195 27.9346 10.2998 27.0264 10.2998C25.7861 10.2998 24.8877 10.7783 24.3311 11.7354V23H20.0977V0.5H24.3311V8.87891ZM44.2822 23.293C41.958 23.293 40.0635 22.5801 38.5986 21.1543C37.1436 19.7285 36.416 17.8291 36.416 15.4561V15.0459C36.416 13.4541 36.7236 12.0332 37.3389 10.7832C37.9541 9.52344 38.8232 8.55664 39.9463 7.88281C41.0791 7.19922 42.3682 6.85742 43.8135 6.85742C45.9814 6.85742 47.6855 7.54102 48.9258 8.9082C50.1758 10.2754 50.8008 12.2139 50.8008 14.7236V16.4521H40.708C40.8447 17.4873 41.2549 18.3174 41.9385 18.9424C42.6318 19.5674 43.5059 19.8799 44.5605 19.8799C46.1914 19.8799 47.4658 19.2891 48.3838 18.1074L50.4639 20.4365C49.8291 21.335 48.9697 22.0381 47.8857 22.5459C46.8018 23.0439 45.6006 23.293 44.2822 23.293ZM43.7988 10.2852C42.959 10.2852 42.2754 10.5684 41.748 11.1348C41.2305 11.7012 40.8984 12.5117 40.752 13.5664H46.6406V13.2295C46.6211 12.292 46.3672 11.5693 45.8789 11.0615C45.3906 10.5439 44.6973 10.2852 43.7988 10.2852ZM57.8906 19.4697H67.2217V23H53.4961V1.67188H57.8906V19.4697ZM68.8184 14.9287C68.8184 13.3564 69.1211 11.9551 69.7266 10.7246C70.332 9.49414 71.2012 8.54199 72.334 7.86816C73.4766 7.19434 74.7998 6.85742 76.3037 6.85742C78.4424 6.85742 80.1855 7.51172 81.5332 8.82031C82.8906 10.1289 83.6475 11.9062 83.8037 14.1523L83.833 15.2363C83.833 17.668 83.1543 19.6211 81.7969 21.0957C80.4395 22.5605 78.6182 23.293 76.333 23.293C74.0479 23.293 72.2217 22.5605 70.8545 21.0957C69.4971 19.6309 68.8184 17.6387 68.8184 15.1191V14.9287ZM73.0518 15.2363C73.0518 16.7402 73.335 17.8926 73.9014 18.6934C74.4678 19.4844 75.2783 19.8799 76.333 19.8799C77.3584 19.8799 78.1592 19.4893 78.7354 18.708C79.3115 17.917 79.5996 16.6572 79.5996 14.9287C79.5996 13.4541 79.3115 12.3115 78.7354 11.501C78.1592 10.6904 77.3486 10.2852 76.3037 10.2852C75.2686 10.2852 74.4678 10.6904 73.9014 11.501C73.335 12.3018 73.0518 13.5469 73.0518 15.2363ZM85.8252 14.958C85.8252 12.5264 86.4014 10.5684 87.5537 9.08398C88.7158 7.59961 90.2783 6.85742 92.2412 6.85742C93.9795 6.85742 95.332 7.45313 96.2988 8.64453L96.4746 7.15039H100.312V22.4727C100.312 23.8594 99.9951 25.0654 99.3604 26.0908C98.7354 27.1162 97.8516 27.8975 96.709 28.4346C95.5664 28.9717 94.2285 29.2402 92.6953 29.2402C91.5332 29.2402 90.4004 29.0059 89.2969 28.5371C88.1934 28.0781 87.3584 27.4824 86.792 26.75L88.667 24.1719C89.7217 25.3535 91.001 25.9443 92.5049 25.9443C93.6279 25.9443 94.502 25.6416 95.127 25.0361C95.752 24.4404 96.0645 23.5908 96.0645 22.4873V21.6377C95.0879 22.7412 93.8037 23.293 92.2119 23.293C90.3076 23.293 88.7646 22.5508 87.583 21.0664C86.4111 19.5723 85.8252 17.5947 85.8252 15.1338V14.958ZM90.0586 15.2656C90.0586 16.7012 90.3467 17.8291 90.9229 18.6494C91.499 19.46 92.29 19.8652 93.2959 19.8652C94.585 19.8652 95.5078 19.3818 96.0645 18.415V11.75C95.498 10.7832 94.585 10.2998 93.3252 10.2998C92.3096 10.2998 91.5088 10.7148 90.9229 11.5449C90.3467 12.375 90.0586 13.6152 90.0586 15.2656ZM102.92 14.9287C102.92 13.3564 103.223 11.9551 103.828 10.7246C104.434 9.49414 105.303 8.54199 106.436 7.86816C107.578 7.19434 108.901 6.85742 110.405 6.85742C112.544 6.85742 114.287 7.51172 115.635 8.82031C116.992 10.1289 117.749 11.9062 117.905 14.1523L117.935 15.2363C117.935 17.668 117.256 19.6211 115.898 21.0957C114.541 22.5605 112.72 23.293 110.435 23.293C108.149 23.293 106.323 22.5605 104.956 21.0957C103.599 19.6309 102.92 17.6387 102.92 15.1191V14.9287ZM107.153 15.2363C107.153 16.7402 107.437 17.8926 108.003 18.6934C108.569 19.4844 109.38 19.8799 110.435 19.8799C111.46 19.8799 112.261 19.4893 112.837 18.708C113.413 17.917 113.701 16.6572 113.701 14.9287C113.701 13.4541 113.413 12.3115 112.837 11.501C112.261 10.6904 111.45 10.2852 110.405 10.2852C109.37 10.2852 108.569 10.6904 108.003 11.501C107.437 12.3018 107.153 13.5469 107.153 15.2363ZM120.762 20.9199C120.762 20.2461 120.986 19.6992 121.436 19.2793C121.895 18.8594 122.466 18.6494 123.149 18.6494C123.843 18.6494 124.414 18.8594 124.863 19.2793C125.322 19.6992 125.552 20.2461 125.552 20.9199C125.552 21.584 125.327 22.126 124.878 22.5459C124.429 22.9561 123.853 23.1611 123.149 23.1611C122.456 23.1611 121.885 22.9561 121.436 22.5459C120.986 22.126 120.762 21.584 120.762 20.9199ZM135.864 19.8799C136.646 19.8799 137.28 19.665 137.769 19.2354C138.257 18.8057 138.511 18.2344 138.53 17.5215H142.5C142.49 18.5957 142.197 19.582 141.621 20.4805C141.045 21.3691 140.254 22.0625 139.248 22.5605C138.252 23.0488 137.148 23.293 135.938 23.293C133.672 23.293 131.885 22.5752 130.576 21.1396C129.268 19.6943 128.613 17.7021 128.613 15.1631V14.8848C128.613 12.4434 129.263 10.4951 130.562 9.04004C131.86 7.58496 133.643 6.85742 135.908 6.85742C137.891 6.85742 139.478 7.42383 140.669 8.55664C141.87 9.67969 142.48 11.1787 142.5 13.0537H138.53C138.511 12.2334 138.257 11.5693 137.769 11.0615C137.28 10.5439 136.636 10.2852 135.835 10.2852C134.849 10.2852 134.102 10.6465 133.594 11.3691C133.096 12.082 132.847 13.2441 132.847 14.8555V15.2949C132.847 16.9258 133.096 18.0977 133.594 18.8105C134.092 19.5234 134.849 19.8799 135.864 19.8799ZM144.258 14.9287C144.258 13.3564 144.561 11.9551 145.166 10.7246C145.771 9.49414 146.641 8.54199 147.773 7.86816C148.916 7.19434 150.239 6.85742 151.743 6.85742C153.882 6.85742 155.625 7.51172 156.973 8.82031C158.33 10.1289 159.087 11.9062 159.243 14.1523L159.272 15.2363C159.272 17.668 158.594 19.6211 157.236 21.0957C155.879 22.5605 154.058 23.293 151.772 23.293C149.487 23.293 147.661 22.5605 146.294 21.0957C144.937 19.6309 144.258 17.6387 144.258 15.1191V14.9287ZM148.491 15.2363C148.491 16.7402 148.774 17.8926 149.341 18.6934C149.907 19.4844 150.718 19.8799 151.772 19.8799C152.798 19.8799 153.599 19.4893 154.175 18.708C154.751 17.917 155.039 16.6572 155.039 14.9287C155.039 13.4541 154.751 12.3115 154.175 11.501C153.599 10.6904 152.788 10.2852 151.743 10.2852C150.708 10.2852 149.907 10.6904 149.341 11.501C148.774 12.3018 148.491 13.5469 148.491 15.2363ZM165.85 7.15039L165.981 8.92285C167.104 7.5459 168.623 6.85742 170.537 6.85742C172.578 6.85742 173.979 7.66309 174.741 9.27441C175.854 7.66309 177.441 6.85742 179.502 6.85742C181.221 6.85742 182.5 7.36035 183.34 8.36621C184.18 9.3623 184.6 10.8662 184.6 12.8779V23H180.352V12.8926C180.352 11.9941 180.176 11.3398 179.824 10.9297C179.473 10.5098 178.853 10.2998 177.964 10.2998C176.694 10.2998 175.815 10.9053 175.327 12.1162L175.342 23H171.108V12.9072C171.108 11.9893 170.928 11.3252 170.566 10.915C170.205 10.5049 169.59 10.2998 168.721 10.2998C167.52 10.2998 166.65 10.7979 166.113 11.7939V23H161.88V7.15039H165.85Z" fill="black"/>
</svg>
