<svg width="17" height="17" viewBox="0 0 17 17" fill="none" xmlns="http://www.w3.org/2000/svg">
<path d="M11.6112 10.0878C13.6519 7.2062 12.9694 3.21603 10.0878 1.17585C7.2062 -0.864329 3.21603 -0.182319 1.17585 2.69977C-0.864329 5.58137 -0.182319 9.57105 2.69977 11.6112C4.75652 13.0674 7.47579 13.1795 9.64515 11.8984L14.3588 16.5837C14.8677 17.1195 15.7145 17.1409 16.2503 16.632C16.786 16.1235 16.8075 15.2767 16.299 14.741C16.2829 14.7239 16.2673 14.7083 16.2503 14.6922L11.6112 10.0878ZM6.38964 10.5246C4.11254 10.5251 2.26638 8.68039 2.26492 6.40329C2.26443 4.12619 4.10913 2.28003 6.38672 2.27906C8.66089 2.27808 10.5061 4.11985 10.5105 6.39403C10.5144 8.67162 8.67064 10.5207 6.39257 10.5246C6.39159 10.5246 6.3911 10.5246 6.38964 10.5246Z" fill="white"/>
</svg>
