<svg width="26" height="26" viewBox="0 0 26 26" fill="none" xmlns="http://www.w3.org/2000/svg">
<path d="M9.02867 26C10.5708 26 11.821 24.7498 11.821 23.2077C11.821 21.6655 10.5708 20.4153 9.02867 20.4153C7.4865 20.4153 6.23633 21.6655 6.23633 23.2077C6.23633 24.7498 7.4865 26 9.02867 26Z" fill="black"/>
<path d="M20.8187 26C22.3609 26 23.611 24.7498 23.611 23.2077C23.611 21.6655 22.3609 20.4153 20.8187 20.4153C19.2765 20.4153 18.0264 21.6655 18.0264 23.2077C18.0264 24.7498 19.2765 26 20.8187 26Z" fill="black"/>
<path d="M6.82585 4.8711L5.86403 1.95464C5.48116 0.801655 4.41049 0.0173408 3.19574 0H1.11699C0.774269 0 0.49646 0.277809 0.49646 0.620527C0.49646 0.963244 0.774269 1.24105 1.11699 1.24105H3.19574C3.87043 1.25596 4.46453 1.68918 4.68503 2.32699L8.59437 14.2101L8.31514 14.9236C7.97491 15.8132 8.06661 16.8103 8.56337 17.6229C9.07973 18.4112 9.94844 18.8977 10.8904 18.926H22.9906C23.3333 18.926 23.6111 18.6482 23.6111 18.3055C23.6111 17.9628 23.3333 17.685 22.9906 17.685H10.8903C10.3679 17.6669 9.8897 17.387 9.61825 16.9403C9.32536 16.4995 9.2674 15.9429 9.46313 15.451L9.83542 14.5202C9.89137 14.3715 9.90217 14.2096 9.86642 14.0548L9.68025 13.5894L22.308 12.2863C23.2274 12.2036 23.9902 11.5408 24.2005 10.6419L25.5037 5.15027L6.82585 4.8711Z" fill="black"/>
</svg>
